<?xml version="1.0" encoding="utf-8"?>
<!-- Generator: Adobe Illustrator 17.1.0, SVG Export Plug-In . SVG Version: 6.00 Build 0)  -->
<!DOCTYPE svg PUBLIC "-//W3C//DTD SVG 1.1//EN" "http://www.w3.org/Graphics/SVG/1.1/DTD/svg11.dtd">
<svg version="1.1"
	 id="svg3176" xmlns:rdf="http://www.w3.org/1999/02/22-rdf-syntax-ns#" xmlns:dc="http://purl.org/dc/elements/1.1/" xmlns:inkscape="http://www.inkscape.org/namespaces/inkscape" xmlns:sodipodi="http://sodipodi.sourceforge.net/DTD/sodipodi-0.dtd" xmlns:cc="http://creativecommons.org/ns#" xmlns:svg="http://www.w3.org/2000/svg" sodipodi:docname="New document 5" inkscape:version="0.48.2 r9819"
	 xmlns="http://www.w3.org/2000/svg" xmlns:xlink="http://www.w3.org/1999/xlink" x="0px" y="0px" viewBox="0 0 1000 312.1"
	 enable-background="new 0 0 1000 312.1" xml:space="preserve">
<sodipodi:namedview  id="base" pagecolor="#ffffff" fit-margin-left="0.5" inkscape:cy="671.66674" inkscape:cx="1802.1504" inkscape:zoom="0.35" showgrid="false" borderopacity="1.0" bordercolor="#666666" fit-margin-top="0.5" inkscape:current-layer="layer1" inkscape:pageshadow="2" inkscape:window-height="1036" inkscape:window-width="1511" inkscape:window-maximized="0" inkscape:window-y="-21" inkscape:window-x="403" fit-margin-bottom="0.5" fit-margin-right="0.5" inkscape:document-units="px" inkscape:pageopacity="0.0">
	</sodipodi:namedview>
<g id="layer1" transform="translate(1427.1504,-891.92887)" inkscape:groupmode="layer" inkscape:label="Layer 1">
	<g id="g3128" transform="matrix(0.37570303,0,0,0.37570303,-1141.6023,902.42898)">
		<path id="path3017" inkscape:connector-curvature="0" sodipodi:nodetypes="ccccccscccccccccccc" d="M195.8,525.5
			c-4.3-3.3-2.7-6.8-0.1-9.8l37.2-43.9c3-3.3,5.9-2.9,9.3,0.1c33.4,28.8,63.5,45.7,111.4,45.7c30.6,0,61.2-11.7,61.2-42.4
			c0-10.1-3.4-18.7-9.4-24.7c-38.6-39.1-197.6-18.9-197.6-142.4c0-54.1,39.3-113.6,132.7-113.6c57.1,0,100.3,19.9,134.2,46.2
			c5.1,4,3.9,6.8,1.3,9.9l-32.8,46.3c-3.2,4.1-5.3,4.1-11.2,0c-19.2-14.8-52.3-34.6-93.6-34.6c-34,0-55.9,15.5-55.9,40.3
			c0,73.9,207,26.5,207,167.2c0,68.1-52.7,115.3-137,115.3C293,584.9,241.7,564.8,195.8,525.5L195.8,525.5z"/>
		<path id="path3019" inkscape:connector-curvature="0" d="M677.1,284.9c-45.6,0-69.1,20.6-89.6,42.5v-30.6c0-4-1.6-5.9-5.8-5.9H521
			c-6.2,0-7,1.6-7,7v360.5c0,4.1,1.6,6,6,6h60.5c4.7,0,7-1.5,7-7V544.7c15.7,20.1,46.8,40.8,89.3,40.8c66.7,0,135.4-49.6,135.4-150
			C812.2,328.7,737.5,284.9,677.1,284.9z M662.4,350.2c37.7,0,75.1,29.7,75.1,85.8c0,50.3-32.9,84.2-75.1,84.2
			c-45.4,0-76.4-40.3-76.4-84.7C586,391.4,615,350.2,662.4,350.2z"/>
		<g id="flowRoot3023" transform="matrix(13.258321,0,0,13.518561,-7360.2406,-3893.01)">
			<path id="path3032" inkscape:connector-curvature="0" sodipodi:nodetypes="ccccccccssssssssccccccccc" d="M641.1,320.2
				L641.1,320.2c0-1.6-0.3-3.1-0.9-4.4c-0.6-1.3-1.4-2.5-2.4-3.5c-1-1-2.2-1.8-3.7-2.4c-1.4-0.6-2.9-0.9-4.6-0.9
				c-1.7,0-3.2,0.3-4.6,0.9c-1.4,0.6-2.6,1.4-3.7,2.4c-1,1-1.9,2.2-2.4,3.5c-0.6,1.3-0.9,2.8-0.9,4.3v0.1c0,1.5,0.3,3,0.9,4.3
				c0.6,1.3,1.4,2.5,2.4,3.5s2.2,1.8,3.7,2.4s2.9,0.9,4.6,0.9c1.7,0,3.2-0.3,4.6-0.9c1.4-0.6,2.6-1.4,3.7-2.4s1.9-2.2,2.4-3.5
				C640.8,323.2,641.1,321.7,641.1,320.2L641.1,320.2z M629.5,326.5c-4,0-6.1-3.5-6.1-6.4c0-3.6,2.6-6.3,6-6.3c3,0,6.1,2.3,6.1,6.4
				C635.5,324.2,632.6,326.5,629.5,326.5L629.5,326.5z"/>
		</g>
		<path id="path3034" inkscape:connector-curvature="0" sodipodi:nodetypes="ccccccccccccccccccccccccc" d="M1283,517.8
			c16,0,28.2-5.3,34.1-8c5.7-3.2,9.9-1.6,9.9,4.6v50c0,3.1-1.7,4.8-4.3,6.2c-16.2,8.1-32.6,13.9-58.7,13.9c-57.1,0-85-31.1-85-85.1
			v-144h-30c-3.9,0-5-2-5-5v-55.5c0-2.6,1.3-4,4-4h31v-70.5c0-3.3,1.1-6,6-6h61c5.3,0,7,2.3,7,7v69.5h69.7c3.1,0,5.3,1.6,5.3,6v52.5
			c0,4.1-1.9,6-6,6h-69v131C1253,503.9,1258,517.8,1283,517.8L1283,517.8z"/>
		<path id="path3036" inkscape:connector-curvature="0" sodipodi:nodetypes="ccccccccc" d="M1363,579.4c-4,0-6-1.9-6-6V296.9
			c0-3.8,1.6-6,6-6h61.9c4.7,0,6.1,2.6,6.1,6.1v276.4c0,4.7-2.1,6-6,6H1363z"/>
		
			<path id="path3038" sodipodi:cx="1331.2548" sodipodi:type="arc" sodipodi:cy="176.18112" sodipodi:ry="19.319168" sodipodi:rx="19.319168" d="
			M1440.4,209.7c0,25.4-20.6,46-46,46c-25.4,0-46-20.6-46-46s20.6-46,46-46C1419.8,163.7,1440.4,184.3,1440.4,209.7z"/>
		<path id="path3040" inkscape:connector-curvature="0" sodipodi:nodetypes="ccccccccccccccccccccccccccccccccccccc" d="M1501,579.4
			c-3.5,0-5-1.9-5-5v-219h-30l-5-5V296c0-3.4,1-5.1,5-5.1h30v-13.5c0-53.3,21.6-96.7,90.7-96.7c21.3,0,43.4,5.1,51.6,7
			c3.5,1.1,4.7,2.6,4.7,5.7v53c0,5.4-3.9,6.4-10.7,3.9c-5.2-1.8-17.6-5.3-31.2-5.3c-25.6,0-33.1,15.2-33.1,38.4v7.5h109
			c3,0,4.4,1.2,6.1,5.7l73.5,192.6l66.8-191.4c1.8-4.9,2.8-6.4,6.7-6.4h65c6.3,0,6.2,4.4,3.7,10.3L1789.9,584
			c-16.2,37.2-32.1,81.7-96.9,81.7c-31,0-47.7-7.3-68.3-17c-4.8-2.2-2.6-6.9,0-11.8l18.9-41.6c2.2-4.8,5.4-4.2,9.7-2.1
			c5.1,2.6,18.2,9,32.8,9c18.9,0,26.9-12,34.3-27.5L1629,355.4h-60v219c0,3.2-1.6,5-5,5H1501z"/>
		<g id="g3099" transform="matrix(0.55912573,0,0,0.55912573,-580.3448,-883.96648)">
			
				<path id="path3103" inkscape:connector-curvature="0" sodipodi:nodetypes="cccccccccccc" fill="#7A9F3F" stroke="#008080" stroke-width="0.25" d="
				M-32.2,2470.9l2.5,24.5l18.9,8.7c1.1-29,19.1-46.6,42.9-50.8c75.4-16.4,168.1-32.1,276.2-32.1c169.9,0,316.4,42.1,435,114.4
				c17.5,10.6,23.2,23.9,25.7,41.5l65.9-42.6l-16.7-65.6L326.5,2337l-459.7,58.6L-32.2,2470.9z"/>
			
				<path id="path3105" inkscape:connector-curvature="0" sodipodi:nodetypes="cccccccccc" fill="#82A73E" stroke="#000080" stroke-width="0.25" d="
				M-63.3,2288l22.3-8.4c0.8-28,15.9-51.2,48.1-60c83.5-24.5,181.6-39.9,288.7-39.9c205.5,0,393.8,53.8,531.4,136.8
				c22,13.5,30.5,23.5,34.6,58.9l101.2-55.6l-425-198.8l-710.5,41.5L-63.3,2288z"/>
			
				<path id="path3107" inkscape:connector-curvature="0" sodipodi:nodetypes="ccccccccc" fill="#81A83E" stroke="#000000" stroke-width="0.25" d="
				M-91.3,2052c-2.3-41.8,19.7-71.9,51.8-81.1c105.6-30.7,218.9-45.7,352.8-45.7c222.7,0,446.4,46.6,610,141.1
				c32.2,17.5,41.5,41,43.2,76.9l101.6-67l-304.8-257.7l-932.9,99.9L-91.3,2052z"/>
			<path id="path3101" inkscape:connector-curvature="0" fill="#020202" d="M421.5,1533.4c-409,0-740.5,331.5-740.5,740.5
				s331.5,740.5,740.5,740.5s740.5-331.5,740.5-740.5S830.5,1533.4,421.5,1533.4z M312.8,1919.8c217.4,0,446.2,44.7,613.3,142.9
				c22.5,12.8,38.2,32,38.2,67.2c0,40.4-32.4,69.4-69.8,69.4c-15.1,0-24-3.7-38.2-11.4c-134-80.4-342-124.6-543.2-124.6
				c-100.4,0-202.4,10.2-295.8,35.6c-10.8,2.7-24.4,8.1-38,8.1c-39.5,0-69.8-31.3-69.8-70.8c0-40.2,24.9-62.8,51.8-70.8
				C66.9,1934.3,184.8,1919.8,312.8,1919.8z M297.7,2174.3c193.8,0,381.3,48.3,528.7,136.5c24.7,14.2,33.8,32.2,33.8,58.5
				c0,32.1-25.5,58-57.7,58c-16.1,0-26.2-6.5-37.1-12.8c-120.5-71.5-287.4-119-470.2-119c-93.8,0-174.7,13.1-241.7,31
				c-14.4,4-22.5,8.2-36,8.2c-31.8,0-57.8-26-57.8-58.1c0-31.5,15.3-53.2,46.1-61.8C89,2191.9,174,2174.3,297.7,2174.3z
				 M307.9,2416.1c162,0,306.5,37.2,430.7,111.7c18.5,10.8,29.3,21.8,29.3,49.2c0,26.7-21.7,46.3-46.1,46.3c-12,0-20.1-4.2-31.3-11
				c-107.3-64.9-241.1-99.1-383.2-99.1c-79.2,0-159,10.2-233.6,25.7c-12.1,2.6-27.4,7.3-36.5,7.3c-28.1,0-46.9-22.3-46.9-46.5
				c0-31.1,18-46.6,40.3-50.9C122.2,2428,213.3,2416.1,307.9,2416.1z"/>
		</g>
	</g>
</g>
</svg>
