<?xml version="1.0" encoding="utf-8"?>
<!-- Generator: Adobe Illustrator 17.1.0, SVG Export Plug-In . SVG Version: 6.00 Build 0)  -->
<!DOCTYPE svg PUBLIC "-//W3C//DTD SVG 1.1//EN" "http://www.w3.org/Graphics/SVG/1.1/DTD/svg11.dtd">
<svg version="1.1"
	 id="svg3176" inkscape:version="0.48.2 r9819" sodipodi:docname="New document 5" xmlns:sodipodi="http://sodipodi.sourceforge.net/DTD/sodipodi-0.dtd" xmlns:cc="http://creativecommons.org/ns#" xmlns:svg="http://www.w3.org/2000/svg" xmlns:dc="http://purl.org/dc/elements/1.1/" xmlns:inkscape="http://www.inkscape.org/namespaces/inkscape" xmlns:rdf="http://www.w3.org/1999/02/22-rdf-syntax-ns#"
	 xmlns="http://www.w3.org/2000/svg" xmlns:xlink="http://www.w3.org/1999/xlink" x="0px" y="0px" viewBox="0 0 1930 540"
	 enable-background="new 0 0 1930 540" xml:space="preserve">
<sodipodi:namedview  inkscape:window-height="1036" inkscape:window-y="-21" fit-margin-bottom="0.5" inkscape:current-layer="layer1" inkscape:document-units="px" inkscape:window-x="403" inkscape:pageshadow="2" fit-margin-right="0.5" inkscape:window-maximized="0" inkscape:pageopacity="0.0" inkscape:window-width="1511" id="base" inkscape:cx="1802.1504" inkscape:cy="671.66674" fit-margin-left="0.5" pagecolor="#ffffff" showgrid="false" inkscape:zoom="0.35" fit-margin-top="0.5" bordercolor="#666666" borderopacity="1.0">
	</sodipodi:namedview>
<path id="path3017" sodipodi:nodetypes="ccccccscccccccccccc" inkscape:connector-curvature="0" fill="#FFFFFF" stroke="#000000" stroke-miterlimit="10" d="
	M721.2,359.8c-2.8-2.1-1.8-4.4-0.1-6.4l24.2-28.5c2-2.1,3.8-1.9,6,0.1c21.7,18.7,41.3,29.7,72.4,29.7c19.9,0,39.8-7.6,39.8-27.6
	c0-6.6-2.2-12.2-6.1-16.1C832.4,285.6,729,298.7,729,218.4c0-35.2,25.5-73.8,86.3-73.8c37.1,0,65.2,12.9,87.2,30
	c3.3,2.6,2.5,4.4,0.8,6.4l-21.3,30.1c-2.1,2.7-3.4,2.7-7.3,0c-12.5-9.6-34-22.5-60.8-22.5c-22.1,0-36.3,10.1-36.3,26.2
	c0,48,134.6,17.2,134.6,108.7c0,44.3-34.3,75-89.1,75C784.4,398.4,751.1,385.3,721.2,359.8L721.2,359.8z"/>
<path id="path3019" inkscape:connector-curvature="0" fill="#FFFFFF" stroke="#000000" stroke-miterlimit="10" d="M1034.1,203.4
	c-29.6,0-44.9,13.4-58.2,27.6v-19.9c0-2.6-1-3.8-3.8-3.8h-39.5c-4,0-4.6,1-4.6,4.6v234.3c0,2.7,1,3.9,3.9,3.9h39.3
	c3.1,0,4.6-1,4.6-4.6v-73.3c10.2,13.1,30.4,26.5,58,26.5c43.4,0,88-32.2,88-97.5C1121.9,231.8,1073.4,203.4,1034.1,203.4z
	 M1024.5,245.8c24.5,0,48.8,19.3,48.8,55.8c0,32.7-21.4,54.7-48.8,54.7c-29.5,0-49.7-26.2-49.7-55.1
	C974.9,272.6,993.7,245.8,1024.5,245.8z"/>
<g id="flowRoot3023" transform="matrix(13.258321,0,0,13.518561,-7360.2406,-3893.01)">
	
		<path id="path3032" sodipodi:nodetypes="ccccccccssssssssccccccccc" inkscape:connector-curvature="0" fill="#FFFFFF" stroke="#000000" stroke-miterlimit="10" d="
		M655.8,310.3L655.8,310.3c0-1-0.2-2-0.6-2.9c-0.4-0.8-0.9-1.6-1.6-2.3c-0.7-0.7-1.4-1.2-2.4-1.6c-0.9-0.4-1.9-0.6-3-0.6
		c-1.1,0-2.1,0.2-3,0.6c-0.9,0.4-1.7,0.9-2.4,1.6c-0.7,0.7-1.2,1.4-1.6,2.3c-0.4,0.8-0.6,1.8-0.6,2.8v0.1c0,1,0.2,2,0.6,2.8
		c0.4,0.8,0.9,1.6,1.6,2.3c0.7,0.7,1.4,1.2,2.4,1.6c1,0.4,1.9,0.6,3,0.6c1.1,0,2.1-0.2,3-0.6s1.7-0.9,2.4-1.6
		c0.7-0.7,1.2-1.4,1.6-2.3C655.6,312.2,655.8,311.2,655.8,310.3L655.8,310.3z M648.3,314.4c-2.6,0-4-2.3-4-4.2
		c0-2.3,1.7-4.1,3.9-4.1c2,0,4,1.5,4,4.2C652.2,312.9,650.3,314.4,648.3,314.4L648.3,314.4z"/>
</g>
<path id="path3034" sodipodi:nodetypes="ccccccccccccccccccccccccc" inkscape:connector-curvature="0" fill="#FFFFFF" stroke="#000000" stroke-miterlimit="10" d="
	M1428,354.8c10.4,0,18.3-3.4,22.2-5.2c3.7-2.1,6.4-1,6.4,3v32.5c0,2-1.1,3.1-2.8,4c-10.5,5.3-21.2,9-38.2,9
	c-37.1,0-55.3-20.2-55.3-55.3v-93.6h-19.5c-2.5,0-3.3-1.3-3.3-3.3v-36.1c0-1.7,0.8-2.6,2.6-2.6h20.2v-45.8c0-2.1,0.7-3.9,3.9-3.9
	h39.7c3.4,0,4.6,1.5,4.6,4.6v45.2h45.3c2,0,3.4,1,3.4,3.9v34.1c0,2.7-1.2,3.9-3.9,3.9h-44.9v85.2
	C1408.5,345.7,1411.7,354.8,1428,354.8L1428,354.8z"/>
<path id="path3036" sodipodi:nodetypes="ccccccccc" inkscape:connector-curvature="0" fill="#FFFFFF" stroke="#000000" stroke-miterlimit="10" d="
	M1480,394.8c-2.6,0-3.9-1.2-3.9-3.9V211.2c0-2.5,1-3.9,3.9-3.9h40.2c3.1,0,4,1.7,4,4v179.7c0,3.1-1.4,3.9-3.9,3.9H1480z"/>
<path id="path3038" sodipodi:type="arc" sodipodi:cx="1331.2548" sodipodi:rx="19.319168" sodipodi:ry="19.319168" sodipodi:cy="176.18112" fill="#FFFFFF" stroke="#000000" stroke-miterlimit="10" d="
	M1530.3,154.5c0,16.5-13.4,29.9-29.9,29.9s-29.9-13.4-29.9-29.9s13.4-29.9,29.9-29.9S1530.3,138,1530.3,154.5z"/>
<path id="path3040" sodipodi:nodetypes="ccccccccccccccccccccccccccccccccccccc" inkscape:connector-curvature="0" fill="#FFFFFF" stroke="#000000" stroke-miterlimit="10" d="
	M1569.7,394.8c-2.3,0-3.3-1.2-3.3-3.3V249.2h-19.5l-3.3-3.3v-35.4c0-2.2,0.7-3.3,3.3-3.3h19.5v-8.8c0-34.6,14-62.9,59-62.9
	c13.8,0,28.2,3.3,33.5,4.6c2.3,0.7,3.1,1.7,3.1,3.7v34.5c0,3.5-2.5,4.2-7,2.5c-3.4-1.2-11.4-3.4-20.3-3.4c-16.6,0-21.5,9.9-21.5,25
	v4.9h70.9c2,0,2.9,0.8,4,3.7l47.8,125.2l43.4-124.4c1.2-3.2,1.8-4.2,4.4-4.2h42.3c4.1,0,4,2.9,2.4,6.7l-70.8,183.5
	c-10.5,24.2-20.9,53.1-63,53.1c-20.2,0-31-4.7-44.4-11.1c-3.1-1.4-1.7-4.5,0-7.7l12.3-27c1.4-3.1,3.5-2.7,6.3-1.4
	c3.3,1.7,11.8,5.9,21.3,5.9c12.3,0,17.5-7.8,22.3-17.9l-59.4-142.6h-39v142.4c0,2.1-1,3.3-3.3,3.3H1569.7z"/>
<g id="g3099" transform="matrix(0.55912573,0,0,0.55912573,-580.3448,-883.96648)">
	
		<path id="path3103" sodipodi:nodetypes="cccccccccccc" inkscape:connector-curvature="0" fill="#7A9F3F" stroke="#FFFFFF" stroke-width="0.25" d="
		M1404.6,2192l1.6,15.9l12.3,5.7c0.7-18.9,12.4-30.3,27.9-33c49-10.7,109.3-20.9,179.5-20.9c110.4,0,205.7,27.4,282.8,74.4
		c11.4,6.9,15.1,15.5,16.7,27l42.8-27.7l-10.9-42.6l-319.6-85.7l-298.8,38.1L1404.6,2192z"/>
	
		<path id="path3105" sodipodi:nodetypes="cccccccccc" inkscape:connector-curvature="0" fill="#82A73E" stroke="#FFFFFF" stroke-width="0.25" d="
		M1384.4,2073.1l14.5-5.5c0.5-18.2,10.3-33.3,31.3-39c54.3-15.9,118-25.9,187.7-25.9c133.6,0,256,35,345.4,88.9
		c14.3,8.8,19.8,15.3,22.5,38.3l65.8-36.1l-276.3-129.2l-461.9,27L1384.4,2073.1z"/>
	
		<path id="path3107" sodipodi:nodetypes="ccccccccc" inkscape:connector-curvature="0" fill="#81A83E" stroke="#FFFFFF" stroke-width="0.25" d="
		M1366.2,1919.7c-1.5-27.2,12.8-46.7,33.7-52.7c68.6-20,142.3-29.7,229.3-29.7c144.8,0,290.2,30.3,396.5,91.7
		c20.9,11.4,27,26.7,28.1,50l66-43.6l-198.1-167.5l-606.4,64.9L1366.2,1919.7z"/>
	<path id="path3101" inkscape:connector-curvature="0" fill="#FFFFFF" stroke="#020202" stroke-miterlimit="10" d="M1699.5,1585.3
		c-265.9,0-481.4,215.5-481.4,481.4s215.5,481.4,481.4,481.4s481.4-215.5,481.4-481.4S1965.4,1585.3,1699.5,1585.3z M1628.9,1836.5
		c141.3,0,290.1,29.1,398.7,92.9c14.6,8.3,24.8,20.8,24.8,43.7c0,26.3-21.1,45.1-45.4,45.1c-9.8,0-15.6-2.4-24.8-7.4
		c-87.1-52.3-222.3-81-353.1-81c-65.3,0-131.6,6.6-192.3,23.1c-7,1.8-15.9,5.3-24.7,5.3c-25.7,0-45.4-20.3-45.4-46
		c0-26.1,16.2-40.8,33.7-46C1469,1845.9,1545.6,1836.5,1628.9,1836.5z M1619,2001.9c126,0,247.9,31.4,343.7,88.7
		c16.1,9.2,22,20.9,22,38c0,20.9-16.6,37.7-37.5,37.7c-10.5,0-17-4.2-24.1-8.3c-78.3-46.5-186.8-77.4-305.7-77.4
		c-61,0-113.6,8.5-157.1,20.2c-9.4,2.6-14.6,5.3-23.4,5.3c-20.7,0-37.6-16.9-37.6-37.8c0-20.5,9.9-34.6,30-40.2
		C1483.4,2013.4,1538.6,2001.9,1619,2001.9z M1625.7,2159.1c105.3,0,199.2,24.2,280,72.6c12,7,19,14.2,19,32
		c0,17.4-14.1,30.1-30,30.1c-7.8,0-13.1-2.7-20.3-7.2c-69.8-42.2-156.7-64.4-249.1-64.4c-51.5,0-103.4,6.6-151.9,16.7
		c-7.9,1.7-17.8,4.7-23.7,4.7c-18.3,0-30.5-14.5-30.5-30.2c0-20.2,11.7-30.3,26.2-33.1C1505,2166.8,1564.2,2159.1,1625.7,2159.1z"/>
</g>
</svg>
